<mxfile host="app.diagrams.net" modified="2023-12-10T09:02:01.921Z" agent="Mozilla/5.0 (Macintosh; Intel Mac OS X 10.15; rv:120.0) Gecko/20100101 Firefox/120.0" etag="eFWNQBVxYajbZYjxjPM4" version="22.1.7" type="github">
  <diagram name="第 1 页" id="rps6Cipa3gKC37jfnILK">
    <mxGraphModel dx="1414" dy="635" grid="0" gridSize="10" guides="1" tooltips="1" connect="1" arrows="1" fold="1" page="1" pageScale="1" pageWidth="827" pageHeight="1169" math="0" shadow="0">
      <root>
        <mxCell id="0" />
        <mxCell id="1" parent="0" />
        <mxCell id="5W2cTwgAZAYK2Sw7-8Q3-6" value="" style="rounded=0;whiteSpace=wrap;html=1;" vertex="1" parent="1">
          <mxGeometry x="368" y="131" width="280" height="250" as="geometry" />
        </mxCell>
        <mxCell id="5W2cTwgAZAYK2Sw7-8Q3-4" style="edgeStyle=orthogonalEdgeStyle;rounded=0;orthogonalLoop=1;jettySize=auto;html=1;exitX=0.5;exitY=1;exitDx=0;exitDy=0;entryX=0.5;entryY=0;entryDx=0;entryDy=0;" edge="1" parent="1" source="5W2cTwgAZAYK2Sw7-8Q3-1" target="5W2cTwgAZAYK2Sw7-8Q3-2">
          <mxGeometry relative="1" as="geometry" />
        </mxCell>
        <mxCell id="5W2cTwgAZAYK2Sw7-8Q3-1" value="&lt;b&gt;Parser&lt;/b&gt;" style="rounded=1;whiteSpace=wrap;html=1;" vertex="1" parent="1">
          <mxGeometry x="418" y="161" width="100" height="40" as="geometry" />
        </mxCell>
        <mxCell id="5W2cTwgAZAYK2Sw7-8Q3-5" style="edgeStyle=orthogonalEdgeStyle;rounded=0;orthogonalLoop=1;jettySize=auto;html=1;exitX=0.5;exitY=1;exitDx=0;exitDy=0;" edge="1" parent="1" source="5W2cTwgAZAYK2Sw7-8Q3-2" target="5W2cTwgAZAYK2Sw7-8Q3-3">
          <mxGeometry relative="1" as="geometry" />
        </mxCell>
        <mxCell id="5W2cTwgAZAYK2Sw7-8Q3-2" value="&lt;b&gt;Planner&lt;/b&gt;" style="rounded=1;whiteSpace=wrap;html=1;" vertex="1" parent="1">
          <mxGeometry x="418" y="241" width="100" height="40" as="geometry" />
        </mxCell>
        <mxCell id="5W2cTwgAZAYK2Sw7-8Q3-8" style="edgeStyle=orthogonalEdgeStyle;rounded=0;orthogonalLoop=1;jettySize=auto;html=1;exitX=0.5;exitY=1;exitDx=0;exitDy=0;entryX=0.5;entryY=0;entryDx=0;entryDy=0;curved=1;" edge="1" parent="1" source="5W2cTwgAZAYK2Sw7-8Q3-3" target="5W2cTwgAZAYK2Sw7-8Q3-7">
          <mxGeometry relative="1" as="geometry" />
        </mxCell>
        <mxCell id="5W2cTwgAZAYK2Sw7-8Q3-10" style="edgeStyle=orthogonalEdgeStyle;rounded=0;orthogonalLoop=1;jettySize=auto;html=1;exitX=0.5;exitY=1;exitDx=0;exitDy=0;entryX=0.5;entryY=0;entryDx=0;entryDy=0;curved=1;" edge="1" parent="1" source="5W2cTwgAZAYK2Sw7-8Q3-3" target="5W2cTwgAZAYK2Sw7-8Q3-9">
          <mxGeometry relative="1" as="geometry" />
        </mxCell>
        <mxCell id="5W2cTwgAZAYK2Sw7-8Q3-3" value="&lt;b&gt;Executor&lt;/b&gt;" style="rounded=1;whiteSpace=wrap;html=1;" vertex="1" parent="1">
          <mxGeometry x="418" y="321" width="100" height="40" as="geometry" />
        </mxCell>
        <mxCell id="5W2cTwgAZAYK2Sw7-8Q3-7" value="Memtable" style="ellipse;whiteSpace=wrap;html=1;fontStyle=1" vertex="1" parent="1">
          <mxGeometry x="348" y="441" width="100" height="50" as="geometry" />
        </mxCell>
        <mxCell id="5W2cTwgAZAYK2Sw7-8Q3-9" value="SST" style="ellipse;whiteSpace=wrap;html=1;fontStyle=1" vertex="1" parent="1">
          <mxGeometry x="498" y="441" width="100" height="50" as="geometry" />
        </mxCell>
        <mxCell id="5W2cTwgAZAYK2Sw7-8Q3-14" value="&lt;b&gt;Catalog&lt;/b&gt;" style="rounded=1;whiteSpace=wrap;html=1;" vertex="1" parent="1">
          <mxGeometry x="548" y="216" width="80" height="80" as="geometry" />
        </mxCell>
        <mxCell id="5W2cTwgAZAYK2Sw7-8Q3-15" value="&lt;b&gt;Client&lt;/b&gt;" style="shape=umlActor;verticalLabelPosition=bottom;verticalAlign=top;html=1;outlineConnect=0;" vertex="1" parent="1">
          <mxGeometry x="218" y="241" width="40" height="70" as="geometry" />
        </mxCell>
        <mxCell id="5W2cTwgAZAYK2Sw7-8Q3-20" value="" style="endArrow=classic;html=1;rounded=0;" edge="1" parent="1">
          <mxGeometry width="50" height="50" relative="1" as="geometry">
            <mxPoint x="268" y="281" as="sourcePoint" />
            <mxPoint x="348" y="281" as="targetPoint" />
          </mxGeometry>
        </mxCell>
        <mxCell id="5W2cTwgAZAYK2Sw7-8Q3-21" value="&lt;b&gt;SQL&lt;/b&gt;" style="text;html=1;strokeColor=none;fillColor=none;align=center;verticalAlign=middle;whiteSpace=wrap;rounded=0;" vertex="1" parent="1">
          <mxGeometry x="278" y="246" width="60" height="30" as="geometry" />
        </mxCell>
      </root>
    </mxGraphModel>
  </diagram>
</mxfile>
